<svg width="393" height="313" viewBox="0 0 393 313" fill="none" xmlns="http://www.w3.org/2000/svg">
<path d="M133.224 127.176V172.56C133.224 181.24 131.116 188.68 126.9 194.88C122.684 201.08 117.476 205.751 111.276 208.892C105.076 211.951 99.0413 213.48 93.172 213.48C85.6493 213.48 78.912 211.868 72.96 208.644C67.0907 205.337 62.5027 200.832 59.196 195.128C55.8893 189.341 54.236 182.852 54.236 175.66V123.332L41.216 119.116L43.944 113.536H82.88V118L71.1 127.176V169.956C71.1 180.124 73.6213 188.06 78.664 193.764C83.7067 199.468 91.3533 202.32 101.604 202.32C105.407 202.32 109.127 201.121 112.764 198.724C116.484 196.244 119.543 192.648 121.94 187.936C124.337 183.224 125.536 177.644 125.536 171.196V125.316L112.392 119.116L115.12 113.536H145.004V118L133.224 127.176ZM219.706 158.424C225.906 160.325 230.784 163.467 234.338 167.848C237.976 172.147 239.794 177.065 239.794 182.604C239.794 187.812 237.645 192.731 233.346 197.36C229.13 201.907 223.84 205.544 217.474 208.272C211.192 211 205.198 212.364 199.494 212.364C195.361 212.364 191.31 212.157 187.342 211.744C180.729 211.331 175.604 211.124 171.966 211.124H155.598V206.66L167.254 197.484V123.208L154.11 119.116L156.962 113.536H171.842C179.365 113.536 186.764 113.288 194.038 112.792C199.66 112.461 203.793 112.296 206.438 112.296C212.06 112.296 217.02 113.371 221.318 115.52C225.617 117.669 228.924 120.604 231.238 124.324C233.636 127.961 234.834 132.053 234.834 136.6C234.834 140.733 233.429 144.701 230.618 148.504C227.89 152.307 224.253 155.572 219.706 158.3V158.424ZM216.606 142.676C216.606 136.311 214.912 131.103 211.522 127.052C208.216 123.001 203.297 120.976 196.766 120.976C192.22 120.976 188.004 122.257 184.118 124.82V157.556H201.106C205.984 157.556 209.786 156.275 212.514 153.712C215.242 151.149 216.606 147.471 216.606 142.676ZM202.966 202.692C208.67 202.692 213.176 201.245 216.482 198.352C219.872 195.459 221.566 191.573 221.566 186.696C221.566 180.413 219.748 175.329 216.11 171.444C212.473 167.559 207.1 165.492 199.99 165.244C199.412 165.327 198.626 165.368 197.634 165.368H184.118V199.468C189.409 201.535 195.692 202.568 202.966 202.568V202.692ZM308.743 111.056C313.207 111.056 318.374 111.676 324.243 112.916C330.112 114.156 334.411 115.479 337.139 116.884V141.436H330.939C323.582 128.623 313.786 122.216 301.551 122.216C296.26 122.216 291.424 123.787 287.043 126.928C282.744 130.069 279.314 134.409 276.751 139.948C274.271 145.487 273.031 151.687 273.031 158.548C273.031 166.484 274.23 173.717 276.627 180.248C279.107 186.779 282.868 192.028 287.911 195.996C292.954 199.881 299.195 201.824 306.635 201.824C313.827 201.824 324.036 196.781 337.263 186.696L341.231 193.02L318.415 210.752C315.274 211.827 312.215 212.529 309.239 212.86C306.263 213.273 303.08 213.48 299.691 213.48C290.928 213.48 283.116 211.372 276.255 207.156C269.476 202.94 264.186 197.153 260.383 189.796C256.663 182.356 254.803 173.924 254.803 164.5C254.803 154.828 257.655 145.9 263.359 137.716C269.063 129.449 276.131 122.96 284.563 118.248C292.995 113.453 301.055 111.056 308.743 111.056Z" fill="#8F1E15"/>
<path d="M28.224 271.424C30.9973 271.424 33.1733 270.635 34.752 269.056C36.3733 267.477 37.184 265.301 37.184 262.528C37.184 258.731 36.224 255.616 34.304 253.184C32.4267 250.752 29.6533 249.536 25.984 249.536C23.168 249.536 20.6507 250.325 18.432 251.904V290.496L28.608 293.184L27.136 296.064H3.712V293.76L9.728 289.024V250.752L2.944 248.576L4.416 245.696H12.48C16.5333 245.696 20.5227 245.568 24.448 245.312C27.4347 245.141 29.6107 245.056 30.976 245.056C34.048 245.056 36.7573 245.696 39.104 246.976C41.4933 248.256 43.328 250.005 44.608 252.224C45.9307 254.4 46.592 256.853 46.592 259.584C46.592 262.571 45.4827 265.408 43.264 268.096C41.0453 270.741 38.2293 272.811 34.816 274.304C31.4027 275.797 28.0533 276.459 24.768 276.288L21.824 274.24L23.296 271.36H28.16L28.224 271.424ZM89.3485 296H76.7405V289.536L68.8045 296.128C67.9938 296.469 66.7992 296.64 65.2205 296.64C62.2338 296.64 59.8658 295.765 58.1165 294.016C56.3672 292.224 55.4925 289.813 55.4925 286.784V271.808L49.7965 268.48V266.176L61.0605 260.8H63.8125V283.264C63.8125 285.568 64.1752 287.189 64.9005 288.128C65.6258 289.024 66.8845 289.472 68.6765 289.472C69.9138 289.472 71.1512 289.237 72.3885 288.768C73.6258 288.299 75.0765 287.403 76.7405 286.08V271.808L71.0445 268.48V266.176L82.3085 260.8H85.0605V291.008L90.8205 293.12L89.3485 296ZM116.365 268.48C115.469 268.48 114.53 268.715 113.549 269.184C112.567 269.653 111.458 270.507 110.221 271.744V290.496L119.309 293.184L117.901 296.064H96.2045V293.76L101.901 289.216V271.808L96.2045 268.416V266.112L107.597 260.672L109.708 268.416L116.173 261.76C117.154 261.419 118.306 261.248 119.629 261.248C121.207 261.248 122.573 261.653 123.725 262.464C124.919 263.275 125.815 264.427 126.413 265.92L121.805 271.68H119.053C118.882 270.528 118.583 269.717 118.157 269.248C117.73 268.736 117.133 268.48 116.365 268.48ZM148.384 296H130.08V293.696L135.776 289.152V271.232L130.08 267.328V265.024L141.344 260.672H144.096V291.008L149.856 293.12L148.384 296ZM139.68 241.472C141.088 241.472 142.24 241.984 143.135 243.008C144.032 243.989 144.48 245.205 144.48 246.656C144.48 247.68 144.16 248.661 143.52 249.6C142.88 250.496 142.069 251.221 141.088 251.776C140.106 252.288 139.146 252.544 138.208 252.544C136.842 252.544 135.712 252.053 134.816 251.072C133.92 250.091 133.472 248.853 133.472 247.36C133.472 246.336 133.792 245.376 134.432 244.48C135.072 243.541 135.882 242.816 136.864 242.304C137.845 241.749 138.784 241.472 139.68 241.472ZM174.085 296.128C173.018 296.469 171.717 296.64 170.181 296.64C166.511 296.64 163.823 295.723 162.117 293.888C160.453 292.011 159.621 289.131 159.621 285.248V266.752H152.709V264L165.189 249.664H167.941V263.808H179.461V266.752H167.941V285.76C167.941 289.131 169.605 290.816 172.933 290.816C173.829 290.816 174.682 290.645 175.493 290.304C176.303 289.92 177.349 289.259 178.629 288.32L180.549 291.008L174.085 296.128ZM219.262 264.192L203.07 296L189.374 312.896L186.622 310.72C188.968 308.117 190.76 305.835 191.998 303.872C193.278 301.909 194.174 299.947 194.686 297.984C195.198 296.021 195.475 293.717 195.518 291.072L187.646 271.872L181.63 268.352V266.048L193.214 260.672L195.646 270.336L203.326 288.96L212.094 270.976L203.454 264.768L204.862 261.888H219.262V264.192ZM288.655 260.864L286.415 261.632L277.775 248.96H270.351V290.944L277.135 293.12L275.727 296H255.631V293.696L261.647 288.96V248.96H254.415L245.775 261.632L243.535 260.864V244.544L247.247 245.696H284.943L288.655 244.544V260.864ZM311.861 296.064C310.026 296.448 307.807 296.64 305.205 296.64C302.346 296.64 299.765 295.915 297.461 294.464C295.199 292.971 293.407 290.965 292.085 288.448C290.805 285.931 290.165 283.136 290.165 280.064C290.165 276.736 291.167 273.643 293.173 270.784C295.221 267.883 297.781 265.579 300.853 263.872C303.925 262.123 306.89 261.248 309.749 261.248C313.887 261.248 317.087 262.869 319.349 266.112C321.653 269.355 322.783 273.685 322.741 279.104H299.189C299.487 282.517 300.469 285.312 302.133 287.488C303.797 289.621 306.058 290.688 308.917 290.688C311.733 290.688 315.743 288.683 320.949 284.672L322.869 287.296L311.861 296.064ZM306.101 267.072C301.706 267.072 299.402 270.101 299.189 276.16H313.589C313.205 273.984 312.799 272.299 312.373 271.104C311.989 269.909 311.306 268.949 310.325 268.224C309.343 267.456 307.914 267.072 306.037 267.072H306.101ZM350.802 288.832C350.802 287.723 350.162 286.699 348.882 285.76C347.602 284.779 345.639 283.584 342.994 282.176C340.733 280.981 338.919 279.957 337.554 279.104C336.231 278.251 335.079 277.269 334.098 276.16C333.159 275.008 332.69 273.749 332.69 272.384C332.69 270.848 333.351 269.205 334.674 267.456C335.997 265.707 337.618 264.235 339.538 263.04C341.501 261.845 343.293 261.248 344.914 261.248C346.919 261.248 349.245 261.504 351.89 262.016C354.535 262.485 356.455 263.019 357.65 263.616V273.664H354.898C353.575 271.147 352.039 269.184 350.29 267.776C348.541 266.325 346.727 265.6 344.85 265.6C343.613 265.6 342.61 265.941 341.842 266.624C341.117 267.264 340.754 268.075 340.754 269.056C340.754 270.293 341.415 271.403 342.738 272.384C344.061 273.365 346.109 274.603 348.882 276.096C351.058 277.205 352.807 278.187 354.13 279.04C355.453 279.851 356.583 280.811 357.522 281.92C358.461 282.987 358.93 284.181 358.93 285.504C358.93 287.083 358.226 288.747 356.818 290.496C355.453 292.203 353.767 293.653 351.762 294.848C349.799 296.043 347.986 296.64 346.322 296.64C344.189 296.64 341.629 296.384 338.642 295.872C335.698 295.36 333.607 294.827 332.37 294.272V284.16H335.122C336.573 286.72 338.301 288.725 340.306 290.176C342.311 291.584 344.338 292.288 346.386 292.288C347.709 292.288 348.775 291.947 349.586 291.264C350.397 290.581 350.802 289.771 350.802 288.832ZM385.272 296.128C384.205 296.469 382.904 296.64 381.368 296.64C377.699 296.64 375.011 295.723 373.304 293.888C371.64 292.011 370.808 289.131 370.808 285.248V266.752H363.896V264L376.376 249.664H379.128V263.808H390.648V266.752H379.128V285.76C379.128 289.131 380.792 290.816 384.12 290.816C385.016 290.816 385.869 290.645 386.68 290.304C387.491 289.92 388.536 289.259 389.816 288.32L391.736 291.008L385.272 296.128Z" fill="black"/>
<rect y="226" width="385" height="4" fill="black"/>
</svg>
